<svg xmlns="http://www.w3.org/2000/svg" version="1.1" xmlns:xlink="http://www.w3.org/1999/xlink" xmlns:svgjs="http://svgjs.dev/svgjs" width="2000" height="1500" viewBox="0 0 2000 1500"><rect width="2000" height="1500" fill="#0b022d"></rect><g transform="matrix(0.75,0,0,0.75,249.090909090909,330.56276015386914)"><svg viewBox="0 0 396 222" data-background-color="#0b022d" preserveAspectRatio="xMidYMid meet" height="1121" width="2000" xmlns="http://www.w3.org/2000/svg" xmlns:xlink="http://www.w3.org/1999/xlink"><g id="tight-bounds" transform="matrix(1,0,0,1,0.2400000000000091,-0.24761552680219268)"><svg viewBox="0 0 395.52 222.49523105360439" height="222.49523105360439" width="395.52"><g><svg viewBox="0 0 395.52000000000004 222.4952310536044" height="222.49523105360439" width="395.52"><g><svg viewBox="0 0 395.52000000000004 222.4952310536044" height="222.4952310536044" width="395.52000000000004"><g id="textblocktransform"><svg viewBox="0 0 395.52000000000004 222.4952310536044" height="222.4952310536044" width="395.52000000000004" id="textblock"><g><svg viewBox="0 0 395.52000000000004 222.4952310536044" height="222.4952310536044" width="395.52000000000004"><g transform="matrix(1,0,0,1,0,0)"><svg width="395.52000000000004" viewBox="0.2999999999999988 -32.9 162.29999999999998 87.9" height="222.4952310536044" data-palette-color="#f7fff7"><svg></svg><svg></svg><g class="wordmark-text-0" data-fill-palette-color="primary" id="text-0"><path d="M0.3 7.3v0c0.8-0.367 1.483-0.75 2.05-1.15 0.567-0.4 1.01-0.957 1.33-1.67 0.313-0.72 0.47-1.713 0.47-2.98v0-16.65h4v17.4c0 1.933-0.333 3.443-1 4.53-0.667 1.08-1.433 1.847-2.3 2.3-0.867 0.447-1.617 0.67-2.25 0.67v0c-0.833 0-1.407-0.24-1.72-0.72-0.32-0.487-0.513-1.063-0.58-1.73zM3.55-30.4v0c0-0.7 0.25-1.293 0.75-1.78 0.5-0.48 1.117-0.72 1.85-0.72v0c0.767 0 1.383 0.24 1.85 0.72 0.467 0.487 0.7 1.08 0.7 1.78v0c0 0.7-0.233 1.29-0.7 1.77-0.467 0.487-1.083 0.73-1.85 0.73v0c-0.733 0-1.35-0.243-1.85-0.73-0.5-0.48-0.75-1.07-0.75-1.77zM8.15-21.5v10.8l-4-0.55v-11.75c0.167-0.067 0.427-0.143 0.78-0.23 0.347-0.08 0.72-0.12 1.12-0.12v0c0.7 0 1.227 0.14 1.58 0.42 0.347 0.287 0.52 0.763 0.52 1.43zM37.35-11.55v0c0 2.467-0.467 4.617-1.4 6.45-0.933 1.833-2.25 3.25-3.95 4.25-1.7 1-3.7 1.5-6 1.5v0c-2.3 0-4.307-0.5-6.02-1.5-1.72-1-3.047-2.417-3.98-4.25-0.933-1.833-1.4-3.983-1.4-6.45v0c0-2.5 0.473-4.66 1.42-6.48 0.953-1.813 2.287-3.22 4-4.22 1.72-1 3.713-1.5 5.98-1.5v0c2.267 0 4.25 0.5 5.95 1.5 1.7 1 3.027 2.407 3.98 4.22 0.947 1.82 1.42 3.98 1.42 6.48zM26-20.45v0c-2.233 0-4.007 0.793-5.32 2.38-1.32 1.58-1.98 3.753-1.98 6.52v0c0 2.8 0.643 4.983 1.93 6.55 1.28 1.567 3.07 2.35 5.37 2.35v0c2.267 0 4.043-0.793 5.33-2.38 1.28-1.58 1.92-3.753 1.92-6.52v0c0-2.767-0.64-4.94-1.92-6.52-1.287-1.587-3.063-2.38-5.33-2.38zM43.55-8.45v0-4.55h4v4.35c0 2.133 0.567 3.667 1.7 4.6 1.133 0.933 2.7 1.4 4.7 1.4v0c1.333 0 2.467-0.143 3.4-0.43 0.933-0.28 1.667-0.57 2.2-0.87v0-9.05h4v8.9c0 0.7-0.09 1.257-0.27 1.67-0.187 0.42-0.63 0.83-1.33 1.23v0c-0.733 0.433-1.783 0.85-3.15 1.25-1.367 0.4-3 0.6-4.9 0.6v0c-2.2 0-4.073-0.327-5.62-0.98-1.553-0.647-2.73-1.647-3.53-3-0.8-1.347-1.2-3.053-1.2-5.12zM63.55-21.5v11.1h-4v-12.6c0.167-0.067 0.427-0.143 0.78-0.23 0.347-0.08 0.703-0.12 1.07-0.12v0c0.733 0 1.277 0.14 1.63 0.42 0.347 0.287 0.52 0.763 0.52 1.43zM47.55-21.5v11.1h-4v-12.6c0.167-0.067 0.427-0.143 0.78-0.23 0.347-0.08 0.72-0.12 1.12-0.12v0c0.7 0 1.227 0.14 1.58 0.42 0.347 0.287 0.52 0.763 0.52 1.43zM75.05-18.8v0 7.9h-4v-7.6c0-0.767 0.143-1.377 0.43-1.83 0.28-0.447 0.753-0.887 1.42-1.32v0c0.867-0.567 2.05-1.06 3.55-1.48 1.5-0.413 3.167-0.62 5-0.62v0c2.667 0 4 0.667 4 2v0c0 0.333-0.05 0.64-0.15 0.92-0.1 0.287-0.233 0.53-0.4 0.73v0c-0.333-0.067-0.767-0.133-1.3-0.2-0.533-0.067-1.067-0.1-1.6-0.1v0c-1.533 0-2.883 0.157-4.05 0.47-1.167 0.32-2.133 0.697-2.9 1.13zM71.05-1.55v-11.65l4 0.6v12.5c-0.167 0.067-0.417 0.143-0.75 0.23-0.333 0.08-0.7 0.12-1.1 0.12v0c-0.7 0-1.233-0.143-1.6-0.43-0.367-0.28-0.55-0.737-0.55-1.37zM110.15-15.25v0 5.1h-4v-4.9c0-1.867-0.523-3.233-1.57-4.1-1.053-0.867-2.463-1.3-4.23-1.3v0c-1.333 0-2.517 0.167-3.55 0.5-1.033 0.333-1.917 0.717-2.65 1.15v0 8.65h-4v-8.45c0-0.7 0.143-1.277 0.43-1.73 0.28-0.447 0.77-0.887 1.47-1.32v0c0.867-0.5 2.017-0.977 3.45-1.43 1.433-0.447 3.05-0.67 4.85-0.67v0c3.033 0 5.427 0.69 7.18 2.07 1.747 1.387 2.62 3.53 2.62 6.43zM90.15-1.55v-11.35h4v12.8c-0.167 0.067-0.417 0.143-0.75 0.23-0.333 0.08-0.7 0.12-1.1 0.12v0c-0.7 0-1.233-0.143-1.6-0.43-0.367-0.28-0.55-0.737-0.55-1.37zM106.15-1.55v-11.35h4v12.8c-0.167 0.067-0.423 0.143-0.77 0.23-0.353 0.08-0.713 0.12-1.08 0.12v0c-0.733 0-1.273-0.143-1.62-0.43-0.353-0.28-0.53-0.737-0.53-1.37zM135.9-11.35l-16.8 2.35-0.2-3.15 15.1-2.05c-0.133-1.833-0.767-3.343-1.9-4.53-1.133-1.18-2.7-1.77-4.7-1.77v0c-2.067 0-3.773 0.74-5.12 2.22-1.353 1.487-2.03 3.613-2.03 6.38v0 1.1c0.233 2.667 1.11 4.69 2.63 6.07 1.513 1.387 3.587 2.08 6.22 2.08v0c1.4 0 2.667-0.233 3.8-0.7 1.133-0.467 2.033-0.967 2.7-1.5v0c0.367 0.233 0.66 0.507 0.88 0.82 0.213 0.32 0.32 0.68 0.32 1.08v0c0 0.633-0.357 1.223-1.07 1.77-0.72 0.553-1.67 0.997-2.85 1.33-1.187 0.333-2.513 0.5-3.98 0.5v0c-2.567 0-4.79-0.467-6.67-1.4-1.887-0.933-3.337-2.327-4.35-4.18-1.02-1.847-1.53-4.103-1.53-6.77v0c0-1.9 0.277-3.593 0.83-5.08 0.547-1.48 1.313-2.737 2.3-3.77 0.98-1.033 2.153-1.827 3.52-2.38 1.367-0.547 2.85-0.82 4.45-0.82v0c2.033 0 3.827 0.433 5.38 1.3 1.547 0.867 2.763 2.077 3.65 3.63 0.88 1.547 1.32 3.32 1.32 5.32v0c0 0.733-0.167 1.257-0.5 1.57-0.333 0.32-0.8 0.513-1.4 0.58zM148.3-5.15v0c-0.567-1.067-1.25-2.507-2.05-4.32-0.8-1.82-1.623-3.857-2.47-6.11-0.853-2.247-1.663-4.537-2.43-6.87v0c0.233-0.333 0.543-0.6 0.93-0.8 0.38-0.2 0.787-0.3 1.22-0.3v0c0.567 0 1.033 0.15 1.4 0.45 0.367 0.3 0.667 0.8 0.9 1.5v0c1 2.8 2.05 5.583 3.15 8.35 1.1 2.767 2.317 5.633 3.65 8.6v0h0.2c0.7-1.4 1.433-3.15 2.2-5.25 0.767-2.1 1.5-4.317 2.2-6.65 0.7-2.333 1.283-4.533 1.75-6.6v0c0.233-0.1 0.493-0.193 0.78-0.28 0.28-0.08 0.587-0.12 0.92-0.12v0c0.567 0 1.033 0.14 1.4 0.42 0.367 0.287 0.55 0.713 0.55 1.28v0c0 0.533-0.15 1.423-0.45 2.67-0.3 1.253-0.707 2.703-1.22 4.35-0.52 1.653-1.12 3.403-1.8 5.25-0.687 1.853-1.42 3.67-2.2 5.45-0.787 1.787-1.58 3.397-2.38 4.83v0c-1.533 2.833-2.933 5.01-4.2 6.53-1.267 1.513-2.433 2.27-3.5 2.27v0c-0.767 0-1.357-0.2-1.77-0.6-0.42-0.4-0.68-0.867-0.78-1.4v0c0.733-0.633 1.56-1.473 2.48-2.52 0.913-1.053 1.797-2.187 2.65-3.4 0.847-1.22 1.537-2.38 2.07-3.48v0c-0.567-0.167-1.09-0.467-1.57-0.9-0.487-0.433-1.03-1.217-1.63-2.35z" fill="#f7fff7" fill-rule="nonzero" stroke="none" stroke-width="1" stroke-linecap="butt" stroke-linejoin="miter" stroke-miterlimit="10" stroke-dasharray="" stroke-dashoffset="0" font-family="none" font-weight="none" font-size="none" text-anchor="none" style="mix-blend-mode: normal" data-fill-palette-color="primary" opacity="1"></path><path d="M22.4 29.65v0 5.75h-4v-5.45c0-1.633-0.473-2.833-1.42-3.6-0.953-0.767-2.213-1.15-3.78-1.15v0c-1.033 0-2.033 0.167-3 0.5-0.967 0.333-1.783 0.717-2.45 1.15v0 8.55h-4v-8.35c0-0.667 0.14-1.233 0.42-1.7 0.287-0.467 0.78-0.917 1.48-1.35v0c0.9-0.567 2.043-1.06 3.43-1.48 1.38-0.413 2.77-0.62 4.17-0.62v0c1.7 0 3.2 0.257 4.5 0.77 1.3 0.52 2.267 1.23 2.9 2.13v0c0.2 0.2 0.367 0.383 0.5 0.55 0.133 0.167 0.267 0.383 0.4 0.65v0c0.233 0.4 0.433 0.917 0.6 1.55 0.167 0.633 0.25 1.333 0.25 2.1zM37.05 29.75v0 5.65h-4v-5.45c0-1.633-0.467-2.833-1.4-3.6-0.933-0.767-2.183-1.15-3.75-1.15v0c-1.167 0-2.29 0.24-3.37 0.72-1.087 0.487-2.063 1.18-2.93 2.08v0l-1.6-2.9c0.867-0.867 2-1.617 3.4-2.25 1.4-0.633 3-0.95 4.8-0.95v0c1.8 0 3.36 0.283 4.68 0.85 1.313 0.567 2.337 1.433 3.07 2.6 0.733 1.167 1.1 2.633 1.1 4.4zM3.75 44.1v-11.35h4v12.8c-0.167 0.067-0.417 0.143-0.75 0.23-0.333 0.08-0.7 0.12-1.1 0.12v0c-0.7 0-1.233-0.143-1.6-0.43-0.367-0.28-0.55-0.737-0.55-1.37zM18.4 44.1v-11.35h4v12.8c-0.167 0.067-0.423 0.143-0.77 0.23-0.353 0.08-0.713 0.12-1.08 0.12v0c-0.733 0-1.273-0.143-1.62-0.43-0.353-0.28-0.53-0.737-0.53-1.37zM33.05 44.1v-11.35h4v12.8c-0.167 0.067-0.427 0.143-0.78 0.23-0.347 0.08-0.703 0.12-1.07 0.12v0c-0.733 0-1.273-0.143-1.62-0.43-0.353-0.28-0.53-0.737-0.53-1.37zM52.8 46.35v0c-3.133 0-5.557-0.617-7.27-1.85-1.72-1.233-2.58-3.017-2.58-5.35v0c0-2.167 0.727-3.827 2.18-4.98 1.447-1.147 3.453-1.837 6.02-2.07v0l7.1-0.7v-1.4c0-1.667-0.5-2.883-1.5-3.65-1-0.767-2.35-1.15-4.05-1.15v0c-1.367 0-2.673 0.2-3.92 0.6-1.253 0.4-2.363 0.85-3.33 1.35v0c-0.267-0.233-0.507-0.51-0.72-0.83-0.22-0.313-0.33-0.637-0.33-0.97v0c0-0.867 0.483-1.533 1.45-2v0c0.9-0.467 1.943-0.827 3.13-1.08 1.18-0.247 2.437-0.37 3.77-0.37v0c2.9 0 5.2 0.65 6.9 1.95 1.7 1.3 2.55 3.35 2.55 6.15v0 11.85c0 0.733-0.14 1.29-0.42 1.67-0.287 0.387-0.713 0.747-1.28 1.08v0c-0.8 0.433-1.867 0.833-3.2 1.2-1.333 0.367-2.833 0.55-4.5 0.55zM52.8 43.05v0c1.4 0 2.56-0.143 3.48-0.43 0.913-0.28 1.57-0.553 1.97-0.82v0-7.25l-6.2 0.65c-1.733 0.133-3.017 0.517-3.85 1.15-0.833 0.633-1.25 1.55-1.25 2.75v0c0 1.233 0.493 2.2 1.48 2.9 0.98 0.7 2.437 1.05 4.37 1.05zM79.35 46.3v0c-1.433 0-2.773-0.207-4.02-0.62-1.253-0.42-2.163-0.88-2.73-1.38v0-3.7c0.667 0.633 1.51 1.19 2.53 1.67 1.013 0.487 2.237 0.73 3.67 0.73v0c2.333 0 4.207-0.71 5.62-2.13 1.42-1.413 2.13-3.687 2.13-6.82v0c0-2.2-0.36-3.94-1.08-5.22-0.713-1.287-1.66-2.213-2.84-2.78-1.187-0.567-2.463-0.85-3.83-0.85v0c-1.2 0-2.217 0.15-3.05 0.45-0.833 0.3-1.583 0.633-2.25 1v0 16.6h-4v-16.5c0-0.667 0.117-1.2 0.35-1.6 0.233-0.4 0.717-0.817 1.45-1.25v0c0.9-0.5 1.977-0.96 3.23-1.38 1.247-0.413 2.67-0.62 4.27-0.62v0c2.2 0 4.193 0.423 5.98 1.27 1.78 0.853 3.197 2.17 4.25 3.95 1.047 1.787 1.57 4.097 1.57 6.93v0c0 2.733-0.477 5.007-1.43 6.82-0.947 1.82-2.27 3.18-3.97 4.08-1.7 0.9-3.65 1.35-5.85 1.35zM71.65 55v0c-0.7 0-1.233-0.15-1.6-0.45-0.367-0.3-0.55-0.767-0.55-1.4v0-11.35l4 0.1v12.75c-0.167 0.067-0.417 0.14-0.75 0.22-0.333 0.087-0.7 0.13-1.1 0.13z" fill="#f7fff7" fill-rule="nonzero" stroke="none" stroke-width="1" stroke-linecap="butt" stroke-linejoin="miter" stroke-miterlimit="10" stroke-dasharray="" stroke-dashoffset="0" font-family="none" font-weight="none" font-size="none" text-anchor="none" style="mix-blend-mode: normal" data-fill-palette-color="primary" opacity="1"></path></g></svg></g></svg></g></svg></g></svg></g><g></g></svg></g><defs></defs></svg><rect width="395.52" height="222.49523105360439" fill="none" stroke="none" visibility="hidden"></rect></g></svg></g></svg>