<svg xmlns="http://www.w3.org/2000/svg" version="1.1" xmlnsXlink="http://www.w3.org/1999/xlink" xmlnsSvgjs="http://svgjs.dev/svgjs" width="2000" height="656" viewBox="0 0 2000 656"><g transform="matrix(1,0,0,1,-1.2121212121212466,-0.10845070872107954)"><svg viewBox="0 0 396 130" data-background-color="#121826" preserveAspectRatio="xMidYMid meet" height="656" width="2000" xmlns="http://www.w3.org/2000/svg" xmlnsXlink="http://www.w3.org/1999/xlink"><g id="tight-bounds" transform="matrix(1,0,0,1,0.2400000000000091,0.021491756301429632)"><svg viewBox="0 0 395.52 129.95701648739717" height="129.95701648739717" width="395.52"><g><svg viewBox="0 0 682.7996546096939 224.34922626340284" height="129.95701648739717" width="395.52"><g transform="matrix(1,0,0,1,287.2796546096939,45.5324848061928)"><svg viewBox="0 0 395.52 133.28425665101724" height="133.28425665101724" width="395.52"><g id="textblocktransform"><svg viewBox="0 0 395.52 133.28425665101724" height="133.28425665101724" width="395.52" id="textblock"><g><svg viewBox="0 0 395.52 133.28425665101724" height="133.28425665101724" width="395.52"><g transform="matrix(1,0,0,1,0,0)"><svg width="395.52" viewBox="4.65 -32.1 95.83999999999999 32.300000000000004" height="133.28425665101724" data-palette-color="#ffffff"><path d="M18.1-16.7Q24.9-15.35 24.9-8.95L24.9-8.95Q24.9-4.4 21.6-2.1 18.3 0.2 11.75 0.2L11.75 0.2Q7.35 0.2 4.7 0L4.7 0 4.65 0 4.9-9.65 4.65-32.05 13.55-32.1Q18.05-32.1 20.48-30.1 22.9-28.1 22.9-24.3L22.9-24.3Q22.9-21.6 21.65-19.65 20.4-17.7 18.1-16.7L18.1-16.7ZM18.8-23.85Q18.8-26.45 17.38-27.63 15.95-28.8 12.75-28.8L12.75-28.8 8.7-28.8 8.6-18.05 14.1-17.9Q18.8-19 18.8-23.85L18.8-23.85ZM12.35-3.15Q16.45-3.15 18.65-4.7 20.85-6.25 20.85-9.15L20.85-9.15Q20.85-14.05 14.7-14.75L14.7-14.75 8.55-14.7 8.5-10 8.65-3.3Q10.6-3.15 12.35-3.15L12.35-3.15ZM49.55-3.5L49.8-3.1 49.5 0 31.5 0 31.75-9.65 31.5-32.05 49.55-32.05 49.75-31.65 49.45-28.55 41.9-28.7 35.55-28.6 35.45-18.1 41.45-18 46.75-18.15 47.05-17.8 46.7-14.7 41.1-14.8 35.4-14.75 35.35-10 35.5-3.35 41.85-3.3 49.55-3.5ZM74.1-32.05L74.4-31.65 74.1-28.55 68.5-28.85 65.25-28.85 65.1-10 65.25 0 61.2 0 61.5-9.65 61.25-28.85 58-28.85 52.3-28.55 52.05-28.95 52.35-32.05 74.1-32.05ZM89.79-32.05L100.49 0 96.39 0 95.64-3.2 93.84-8.7 86.64-8.85 80.14-8.7 78.19-3.4 77.39 0 73.39 0 85.14-32.05 89.79-32.05ZM86.99-12L92.74-12.1 87.54-27.9 87.19-27.9 81.39-12.1 86.99-12Z" opacity="1" transform="matrix(1,0,0,1,0,0)" fill="#ffffff" class="wordmark-text-0" data-fill-palette-color="primary" id="text-0"></path></svg></g></svg></g></svg></g></svg></g><g><svg viewBox="0 0 224.34922626340284 224.34922626340284" height="224.34922626340284" width="224.34922626340284"><g><svg></svg></g><g id="icon-0"><svg viewBox="0 0 224.34922626340284 224.34922626340284" height="224.34922626340284" width="224.34922626340284"><g><path d="M0 112.175c0-61.952 50.222-112.175 112.175-112.175 61.952 0 112.175 50.222 112.174 112.175 0 61.952-50.222 112.175-112.174 112.174-61.952 0-112.175-50.222-112.175-112.174zM112.175 212.33c55.314 0 100.155-44.841 100.155-100.155 0-55.314-44.841-100.155-100.155-100.155-55.314 0-100.155 44.841-100.155 100.155 0 55.314 44.841 100.155 100.155 100.155z" data-fill-palette-color="accent" fill="#ffffff" stroke="transparent"></path></g><g transform="matrix(1,0,0,1,79.77953980709533,49.996356850517905)"><svg viewBox="0 0 64.79014664921218 124.35651256236703" height="124.35651256236703" width="64.79014664921218"><g><svg xmlns="http://www.w3.org/2000/svg" xmlnsXlink="http://www.w3.org/1999/xlink" xmlSpace="preserve" version="1.1" style="shape-rendering:geometricPrecision;text-rendering:geometricPrecision;image-rendering:optimizeQuality;" viewBox="247.21528579447047 14.645789771370678 505.8469278265636 970.9093602686532" x="0" y="0" fill-rule="evenodd" clip-rule="evenodd" height="124.35651256236703" width="64.79014664921218" class="icon-z$-0" data-fill-palette-color="accent" id="z$-0"><g fill="#ffffff" data-fill-palette-color="accent"><path class="" d="M291 982c-15 8-33 2-40-13-8-14-3-32 12-40 64-34 46-199 28-374-13-118-26-241-14-338 16-131 74-218 227-200 10 2 21 4 32 8 32 11 64 34 86 66 23 33 35 75 29 126-2 16-6 33-12 51-6 15-12 30-20 44 23 10 44 26 63 46 28 31 50 73 61 118 12 45 14 93 2 137-28 111-133 196-358 138-10-2-17-9-21-18 5 118-8 213-75 249z m61-448c6 56 12 112 15 164 5-15 21-24 36-20 182 46 265-14 286-95 9-34 8-72-2-108-9-35-25-68-47-92-17-17-36-30-58-34-12 13-24 23-36 32-15 11-29 18-42 22-19 5-36 4-50-6-8-6-15-15-18-27-3-11 1-23 9-30l0 0c38-35 76-52 112-55 11-15 21-33 27-52 5-14 8-27 10-39 4-34-4-63-19-84-15-21-36-36-57-44-7-2-13-4-20-4-107-14-148 50-160 147-11 91 2 210 14 325z" fill="#ffffff" fill-rule="nonzero" data-fill-palette-color="accent"></path></g></svg></g></svg></g></svg></g></svg></g></svg></g><defs></defs></svg><rect width="395.52" height="129.95701648739717" fill="none" stroke="none" visibility="hidden"></rect></g></svg></g></svg>